<?xml version="1.0" encoding="UTF-8"?>
<!DOCTYPE svg PUBLIC "-//W3C//DTD SVG 1.1//EN" "http://www.w3.org/Graphics/SVG/1.1/DTD/svg11.dtd">
<!-- Creator: CorelDRAW X6 -->
<svg xmlns="http://www.w3.org/2000/svg" xml:space="preserve" width="84.6666mm" height="84.6666mm" version="1.1" style="shape-rendering:geometricPrecision; text-rendering:geometricPrecision; image-rendering:optimizeQuality; fill-rule:evenodd; clip-rule:evenodd"
viewBox="0 0 8467 8467"
 xmlns:xlink="http://www.w3.org/1999/xlink">
 <defs>
  <style type="text/css">
   <![CDATA[
    .fil0 {fill:#FFB700}
   ]]>
  </style>
 </defs>
 <g id="Layer_x0020_1">
  <metadata id="CorelCorpID_0Corel-Layer"/>
  <path class="fil0" d="M4041 548c-440,161 -630,618 -887,1088 -634,1163 -1480,2547 -2159,3743l-719 1236c-340,534 -286,1098 316,1276 412,122 4795,46 5837,49 535,2 1387,87 1739,-198 484,-393 90,-991 -137,-1387 -246,-429 -477,-849 -729,-1263 -506,-833 -955,-1678 -1442,-2506 -253,-430 -474,-819 -717,-1236 -205,-352 -516,-1015 -1102,-801zm0 5189c-834,340 -354,1410 402,1171 278,-88 504,-435 375,-800 -88,-248 -427,-514 -777,-371zm-103 -410l593 -7c60,-404 396,-2208 274,-2505 -195,-477 -914,-527 -1145,4 -140,322 221,1761 278,2508z"/>
 </g>
</svg>
