<?xml version="1.0" encoding="UTF-8"?>
<!DOCTYPE svg PUBLIC "-//W3C//DTD SVG 1.1//EN" "http://www.w3.org/Graphics/SVG/1.1/DTD/svg11.dtd">
<!-- Creator: CorelDRAW X6 -->
<svg xmlns="http://www.w3.org/2000/svg" xml:space="preserve" width="84.6666mm" height="84.6666mm" version="1.1" style="shape-rendering:geometricPrecision; text-rendering:geometricPrecision; image-rendering:optimizeQuality; fill-rule:evenodd; clip-rule:evenodd"
viewBox="0 0 8467 8467"
 xmlns:xlink="http://www.w3.org/1999/xlink">
 <defs>
  <style type="text/css">
   <![CDATA[
    .fil1 {fill:#FEFEFE}
    .fil0 {fill:#006600}
   ]]>
  </style>
 </defs>
 <g id="Layer_x0020_1">
  <metadata id="CorelCorpID_0Corel-Layer"/>
  <path class="fil0" d="M3911 103c-2178,175 -4003,2065 -3812,4465 171,2161 2082,3993 4457,3801 2180,-177 4000,-2076 3807,-4472 -173,-2153 -2074,-3984 -4452,-3793z"/>
  <path class="fil1" d="M3676 4743c-258,-215 -455,-546 -830,-611 -221,-38 -1080,126 -1235,210 -35,201 229,482 406,724 164,225 303,428 478,662 274,365 598,1089 1378,810 322,-115 865,-892 1093,-1187 336,-434 663,-838 1008,-1272 164,-207 331,-422 504,-636 145,-179 378,-420 390,-762 6,-174 -42,-325 -80,-484 -131,-548 -206,-343 -830,277l-2284 2269z"/>
 </g>
</svg>
