<?xml version="1.0" encoding="UTF-8"?>
<!DOCTYPE svg PUBLIC "-//W3C//DTD SVG 1.1//EN" "http://www.w3.org/Graphics/SVG/1.1/DTD/svg11.dtd">
<!-- Creator: CorelDRAW X6 -->
<svg xmlns="http://www.w3.org/2000/svg" xml:space="preserve" width="84.6666mm" height="21.1666mm" version="1.1" style="shape-rendering:geometricPrecision; text-rendering:geometricPrecision; image-rendering:optimizeQuality; fill-rule:evenodd; clip-rule:evenodd"
viewBox="0 0 8467 2117"
 xmlns:xlink="http://www.w3.org/1999/xlink">
 <defs>
  <style type="text/css">
   <![CDATA[
    .fil1 {fill:red}
    .fil2 {fill:#FEFEFE;fill-rule:nonzero}
    .fil0 {fill:red;fill-rule:nonzero}
   ]]>
  </style>
 </defs>
 <g id="Layer_x0020_1">
  <metadata id="CorelCorpID_0Corel-Layer"/>
  <g id="_991524656">
   <path class="fil0" d="M2199 1286c-3,48 -32,87 -87,115 -50,26 -108,38 -174,38l-481 0c-66,0 -116,-13 -150,-40 -22,-17 -51,-55 -85,-113l-246 -421c31,-4 102,-23 214,-55 108,-31 176,-52 203,-63 165,-66 248,-149 248,-248 0,-114 -105,-171 -315,-171l-1274 0 195 -243 1257 0c452,0 678,111 678,333 0,188 -234,352 -703,492l222 377 497 0zm-1104 -835l-402 989 -445 0 399 -989 448 0z"/>
   <path class="fil0" d="M4222 1293c-39,97 -143,146 -312,146l-636 0c-123,0 -184,-32 -184,-95 0,-16 5,-33 14,-51l140 -328 -187 0 72 -146c134,-27 233,-62 298,-105 73,-48 152,-135 235,-261l244 0 -155 366 301 0c-48,97 -145,146 -291,146l-76 0 -137 328 673 0z"/>
   <path class="fil0" d="M5432 1295c-38,98 -135,147 -291,147l-451 0c-129,0 -193,-32 -193,-95 -86,76 -192,114 -318,114 -93,0 -168,-22 -226,-66 -58,-44 -87,-102 -87,-173 0,-128 62,-229 186,-303 112,-67 251,-101 417,-101l663 0 -195 477 495 0zm-784 -331l-246 0 -83 214c-5,13 -7,26 -7,37 0,53 68,80 203,80l134 -330z"/>
   <path class="fil0" d="M6656 1296c-20,54 -64,93 -133,118 -49,18 -101,27 -156,27l-461 0c-105,0 -158,-27 -158,-82 0,-18 6,-40 16,-64l77 -196 -391 265c-92,51 -167,77 -226,77l-209 0 244 -620 411 0 -122 310 355 -241c96,-65 200,-96 313,-94 76,3 114,33 114,91 0,22 -6,46 -18,73l-131 334 477 0z"/>
   <path class="fil0" d="M2764 821c1,0 31,2 32,3 23,3 14,33 17,33 18,1 20,-3 26,2 15,11 3,29 27,24 1,0 21,-25 36,-19l25 12c9,5 8,15 12,28 4,16 2,14 6,25 2,5 6,40 7,47 9,37 13,123 10,148 -11,98 -70,176 -176,232 -101,54 -233,81 -395,82 -189,1 -333,-26 -435,-82 -90,-50 -135,-115 -135,-195 0,-16 2,-32 6,-48 20,-89 81,-159 180,-210 105,-54 218,-84 394,-83l364 2zm-156 141l-275 0 -107 227c-5,12 -8,23 -8,34 0,51 64,76 191,76 15,0 28,0 39,-1l160 -336z"/>
   <path class="fil1" d="M2919 1242c2,-5 6,-10 10,-17 56,-101 170,-273 28,-360 -22,-13 -52,-28 -86,-35 -37,-8 -78,-9 -109,-9l41 175 114 246z"/>
   <polygon class="fil1" points="1877,1440 3284,1438 3524,1292 2657,1292 2491,1350 2051,1293 1869,1312 "/>
   <path class="fil0" d="M8414 1296c-17,48 -54,85 -110,111 -51,24 -110,36 -177,36l-717 0c-137,0 -251,-18 -344,-53 -117,-45 -176,-112 -176,-202 0,-10 1,-20 2,-30 16,-110 89,-195 221,-257 116,-55 253,-82 410,-82l300 0c67,0 125,17 172,50 48,33 72,73 72,121 0,48 -24,89 -72,123 -48,34 -105,50 -172,50 -67,0 -125,-17 -172,-51 -47,-34 -70,-75 -69,-124 0,0 0,-7 0,-22l-144 0 -93 203c-8,17 -12,33 -12,47 0,54 55,81 165,81l915 0z"/>
   <path class="fil0" d="M7178 1297c-20,53 -60,93 -122,118 -44,18 -93,27 -145,27l-445 0c-108,0 -162,-36 -162,-109 0,-21 5,-43 16,-66l172 -444 405 0 -183 474 464 0z"/>
   <path class="fil0" d="M6884 582c0,38 -18,71 -55,98 -37,27 -81,40 -133,40 -53,0 -97,-13 -134,-40 -37,-27 -55,-59 -55,-98 0,-38 18,-70 55,-97 37,-27 82,-40 134,-40 52,0 96,13 133,40 37,27 55,59 55,97z"/>
   <polygon class="fil1" points="6231,1442 7409,1443 7302,1357 6436,1360 "/>
  </g>
  <path class="fil2" d="M945 2026l0 -396 79 0 0 396 -79 0zm155 0l0 -396 77 0 161 266 0 -266 73 0 0 396 -79 0 -159 -261 0 261 -73 0zm396 0l0 -396 77 0 161 266 0 -266 73 0 0 396 -79 0 -159 -261 0 261 -73 0zm379 -196c0,-40 6,-74 18,-102 9,-20 21,-38 37,-54 15,-16 32,-28 51,-36 24,-10 53,-16 85,-16 58,0 104,18 139,54 35,36 52,87 52,151 0,64 -17,114 -52,150 -34,36 -81,54 -138,54 -58,0 -105,-18 -139,-54 -34,-36 -52,-86 -52,-149zm82 -3c0,45 10,79 31,102 21,23 47,35 78,35 32,0 58,-12 78,-35 20,-23 30,-58 30,-104 0,-45 -10,-79 -30,-102 -20,-22 -46,-34 -79,-34 -33,0 -59,11 -79,34 -20,23 -30,57 -30,103zm461 198l-140 -396 86 0 100 293 96 -293 84 0 -140 396 -86 0zm578 0l-86 0 -34 -90 -157 0 -33 90 -84 0 152 -396 84 0 157 396zm-145 -157l-55 -147 -53 147 107 0zm235 157l0 -329 -116 0 0 -67 311 0 0 67 -116 0 0 329 -79 0zm220 -196c0,-40 6,-74 18,-102 9,-20 21,-38 37,-54 15,-16 32,-28 51,-36 24,-10 53,-16 85,-16 58,0 104,18 139,54 35,36 52,87 52,151 0,64 -17,114 -52,150 -34,36 -81,54 -138,54 -58,0 -105,-18 -139,-54 -34,-36 -52,-86 -52,-149zm82 -3c0,45 10,79 31,102 21,23 47,35 78,35 32,0 58,-12 78,-35 20,-23 30,-58 30,-104 0,-45 -10,-79 -30,-102 -20,-22 -46,-34 -79,-34 -33,0 -59,11 -79,34 -20,23 -30,57 -30,103zm361 198l0 -396 167 0c42,0 72,4 91,11 19,7 34,20 46,38 11,18 17,39 17,62 0,30 -9,54 -26,74 -17,19 -43,32 -77,37 17,10 31,21 42,33 11,12 26,34 45,64l48 77 -95 0 -57 -87c-20,-31 -34,-50 -42,-58 -7,-8 -15,-13 -24,-16 -8,-3 -22,-4 -40,-4l-16 0 0 166 -79 0zm79 -229l59 0c38,0 62,-2 71,-5 9,-3 17,-9 22,-17 5,-8 8,-18 8,-30 0,-13 -4,-24 -11,-32 -7,-8 -17,-13 -30,-16 -6,-1 -26,-1 -58,-1l-62 0 0 101zm466 229l0 -396 79 0 0 396 -79 0zm155 0l0 -396 77 0 161 266 0 -266 73 0 0 396 -79 0 -159 -261 0 261 -73 0zm545 0l0 -396 79 0 0 396 -79 0zm155 0l0 -396 77 0 161 266 0 -266 73 0 0 396 -79 0 -159 -261 0 261 -73 0zm396 -396l144 0c33,0 57,2 75,8 23,7 43,19 59,37 16,17 29,39 37,64 8,25 13,57 13,94 0,33 -4,61 -12,84 -10,29 -24,52 -42,70 -14,14 -32,24 -56,32 -17,6 -41,8 -70,8l-149 0 0 -396zm79 67l0 262 59 0c22,0 38,-1 48,-4 13,-3 23,-9 32,-17 8,-8 15,-20 21,-38 5,-18 8,-42 8,-73 0,-31 -3,-54 -8,-70 -5,-16 -13,-29 -22,-38 -10,-9 -22,-15 -37,-19 -11,-3 -33,-4 -65,-4l-35 0zm316 -67l79 0 0 215c0,34 1,56 3,66 3,16 11,29 24,39 13,10 30,15 52,15 22,0 39,-5 50,-14 11,-9 18,-21 20,-34 2,-14 3,-36 3,-67l0 -219 79 0 0 208c0,48 -2,81 -6,101 -4,20 -12,36 -24,50 -11,14 -27,24 -46,32 -19,8 -44,12 -75,12 -37,0 -66,-4 -85,-13 -19,-9 -35,-20 -46,-34 -11,-14 -19,-29 -22,-44 -5,-23 -8,-56 -8,-101l0 -212zm375 268l77 -8c5,26 14,45 28,57 14,12 33,18 57,18 25,0 45,-5 57,-16 13,-11 19,-24 19,-38 0,-9 -3,-17 -8,-24 -5,-7 -15,-12 -28,-17 -9,-3 -30,-9 -63,-17 -42,-11 -72,-24 -89,-39 -24,-22 -36,-49 -36,-80 0,-20 6,-39 17,-57 11,-18 28,-31 49,-40 21,-9 47,-14 77,-14 49,0 86,11 111,33 25,22 38,51 39,88l-79 3c-3,-20 -11,-35 -22,-44 -11,-9 -28,-13 -50,-13 -23,0 -41,5 -54,14 -8,6 -13,14 -13,25 0,9 4,17 12,24 10,9 34,17 73,27 38,9 67,19 85,29 18,10 33,23 43,40 10,17 16,38 16,63 0,23 -6,44 -19,64 -13,20 -30,35 -53,44 -23,10 -51,14 -85,14 -50,0 -88,-12 -114,-35 -27,-23 -42,-57 -48,-101zm474 128l0 -329 -116 0 0 -67 311 0 0 67 -116 0 0 329 -79 0zm246 0l0 -396 167 0c42,0 72,4 91,11 19,7 34,20 46,38 11,18 17,39 17,62 0,30 -9,54 -26,74 -17,19 -43,32 -77,37 17,10 31,21 42,33 11,12 26,34 45,64l48 77 -95 0 -57 -87c-20,-31 -34,-50 -42,-58 -7,-8 -15,-13 -24,-16 -8,-3 -22,-4 -40,-4l-16 0 0 166 -79 0zm79 -229l59 0c38,0 62,-2 71,-5 9,-3 17,-9 22,-17 5,-8 8,-18 8,-30 0,-13 -4,-24 -11,-32 -7,-8 -17,-13 -30,-16 -6,-1 -26,-1 -58,-1l-62 0 0 101zm399 229l0 -167 -144 -230 93 0 93 157 90 -157 91 0 -144 230 0 166 -79 0z"/>
 </g>
</svg>
