<?xml version="1.0" encoding="UTF-8"?>
<!DOCTYPE svg PUBLIC "-//W3C//DTD SVG 1.1//EN" "http://www.w3.org/Graphics/SVG/1.1/DTD/svg11.dtd">
<!-- Creator: CorelDRAW X6 -->
<svg xmlns="http://www.w3.org/2000/svg" xml:space="preserve" width="84.6666mm" height="84.6666mm" version="1.1" style="shape-rendering:geometricPrecision; text-rendering:geometricPrecision; image-rendering:optimizeQuality; fill-rule:evenodd; clip-rule:evenodd"
viewBox="0 0 8467 8467"
 xmlns:xlink="http://www.w3.org/1999/xlink"
 xmlns:xodm="http://www.corel.com/coreldraw/odm/2003">
 <defs>
  <style type="text/css">
   <![CDATA[
    .fil0 {fill:#006600}
   ]]>
  </style>
 </defs>
 <g id="Layer_x0020_1">
  <metadata id="CorelCorpID_0Corel-Layer"/>
  <path class="fil0" d="M8399 4233c0,-2301 -1865,-4166 -4166,-4166 -2301,0 -4166,1865 -4166,4166 0,2301 1865,4166 4166,4166 2301,0 4166,-1865 4166,-4166zm-6938 -1686l5545 0c131,0 238,107 238,238l0 1356c0,131 -107,238 -238,238l-5545 0c-131,0 -238,-107 -238,-238l0 -1356c0,-131 107,-238 238,-238zm1153 2676l0 -4 3239 0 0 0 0 4 0 0 0 -3 5 0 5 0 5 1 5 1 5 1 5 1 4 2 4 2 4 2 4 2 4 2 4 2 4 3 4 3 3 3 3 3 3 3 3 3 3 4 3 4 2 4 2 4 2 4 2 4 2 4 2 4 1 5 1 5 1 5 1 5 0 5 0 5 0 0 -1 -1 -3 0 0 0 2 0 0 5 0 5 -1 5 -1 5 -1 5 -1 5 -2 4 -2 4 -2 4 -2 4 -2 4 -2 4 -3 4 -3 4 -3 3 -3 3 -3 3 -3 3 -4 3 -4 3 -4 2 -4 2 -4 2 -4 2 -4 2 -4 2 -5 1 -5 1 -5 1 -5 1 -5 0 -5 0 0 0 1 -1 0 -3 0 3 -3239 0 0 0 0 -3 0 2 -5 0 -5 0 -5 -1 -5 -1 -5 -1 -5 -1 -4 -2 -4 -2 -4 -2 -4 -2 -4 -2 -4 -2 -4 -3 -4 -3 -3 -3 -3 -3 -3 -3 -3 -3 -3 -4 -3 -4 -2 -4 -2 -4 -2 -4 -2 -4 -2 -4 -2 -4 -1 -5 -1 -5 -1 -5 -1 -5 0 -5 0 -5 0 0 1 1 4 0 -3 0 0 -5 0 -5 1 -5 1 -5 1 -5 1 -5 2 -4 2 -4 2 -4 2 -4 2 -4 2 -4 3 -4 3 -4 3 -3 3 -3 3 -3 3 -3 4 -3 4 -3 4 -2 4 -2 4 -2 4 -2 4 -2 4 -2 5 -1 5 -1 5 -1 5 -1 5 0 5 0 0 0 -1 1 0 4 0 0zm3331 92l3 0 -3 0zm-3423 -1l0 0 0 0 0 0 -4 0 4 0zm-354 -604l0 -4 4131 0 0 0 0 4 0 0 0 -3 5 0 5 0 5 1 5 1 5 1 5 1 4 2 4 2 4 2 4 2 4 2 4 2 4 3 4 3 3 3 3 3 3 3 3 3 3 4 3 4 2 4 2 4 2 4 2 4 2 4 2 4 1 5 1 5 1 5 1 5 0 5 0 5 0 0 -1 -1 -3 0 0 0 2 0 0 5 0 5 -1 5 -1 5 -1 5 -1 5 -2 4 -2 4 -2 4 -2 4 -2 4 -2 4 -3 4 -3 4 -3 3 -3 3 -3 3 -3 3 -4 3 -4 3 -4 2 -4 2 -4 2 -4 2 -4 2 -4 2 -5 1 -5 1 -5 1 -5 1 -5 0 -5 0 0 0 1 -1 0 -3 0 0 0 3 -4131 0 0 0 0 -3 0 0 0 2 -5 0 -5 0 -5 -1 -5 -1 -5 -1 -5 -1 -4 -2 -4 -2 -4 -2 -4 -2 -4 -2 -4 -2 -4 -3 -4 -3 -3 -3 -3 -3 -3 -3 -3 -3 -3 -4 -3 -4 -2 -4 -2 -4 -2 -4 -2 -4 -2 -4 -2 -4 -1 -5 -1 -5 -1 -5 -1 -5 0 -5 0 -5 0 0 1 1 4 0 -3 0 0 -5 0 -5 1 -5 1 -5 1 -5 1 -5 2 -4 2 -4 2 -4 2 -4 2 -4 2 -4 3 -4 3 -4 3 -3 3 -3 3 -3 3 -3 4 -3 4 -3 4 -2 4 -2 4 -2 4 -2 4 -2 4 -2 5 -1 5 -1 5 -1 5 -1 5 0 5 0 0 0 -1 1 0 4 0 0zm4223 92l3 0 -3 0zm-4315 -1l0 0 0 0 0 0 -4 0 4 0zm2376 1658l294 0c43,0 77,29 77,64 0,13 -5,25 -13,36l-701 985c-14,19 -39,30 -66,30 -43,0 -77,-29 -77,-63 0,-4 0,-8 1,-12l103 -605 -349 5c0,0 -1,0 -1,0 -42,0 -76,-28 -77,-62 0,0 0,0 0,0 0,-12 4,-23 11,-33l690 -985c14,-19 39,-31 66,-31 43,0 77,28 77,64 0,3 0,6 -1,8l-36 600 0 0 2 -1zm3585 -2226l-183 0 0 0 -5 -186 -14 -184 -23 -181 -32 -178 -40 -175 -49 -172 -57 -168 -65 -164 -73 -160 -80 -156 -87 -152 -94 -147 -101 -142 -108 -137 -114 -131 -120 -126 -126 -120 -131 -114 -137 -107 -142 -101 -147 -94 -152 -87 -156 -80 -160 -73 -164 -65 -168 -57 -172 -49 -175 -40 -178 -32 -181 -23 -184 -14 -186 -5 0 -183 196 5 193 15 190 24 187 33 184 42 181 51 177 60 173 68 168 76 164 84 159 92 154 99 149 106 144 113 138 120 132 126 126 132 120 138 113 144 106 149 99 154 92 159 84 164 76 168 68 173 60 177 51 181 42 184 33 187 24 190 15 193 5 196 0 0 1 0zm-3803 3803l0 -183 0 0 186 -5 184 -14 181 -23 178 -32 175 -40 172 -49 168 -57 164 -65 160 -73 156 -80 152 -87 147 -94 142 -101 137 -108 131 -114 126 -120 120 -126 114 -131 108 -137 101 -142 94 -147 87 -152 80 -156 73 -160 65 -164 57 -168 49 -172 40 -175 32 -178 23 -181 14 -184 5 -186 183 0 -5 196 -15 193 -24 190 -33 187 -42 184 -51 181 -60 177 -68 173 -76 168 -84 164 -92 159 -99 154 -106 149 -113 144 -120 138 -126 132 -132 126 -138 120 -144 113 -149 106 -154 99 -159 92 -164 84 -168 76 -173 68 -177 60 -181 51 -184 42 -187 33 -190 24 -193 15 -196 5 0 0 -1 1zm-3803 -3803l183 0 0 0 5 186 14 184 23 181 32 178 40 175 49 172 57 168 65 164 73 160 80 156 87 152 94 147 101 142 107 137 114 131 120 126 126 120 131 114 137 108 142 101 147 94 152 87 156 80 160 73 164 65 168 57 172 49 175 40 178 32 181 23 184 14 186 5 0 183 -196 -5 -193 -15 -190 -24 -187 -33 -184 -42 -181 -51 -177 -60 -173 -68 -169 -76 -164 -84 -159 -92 -154 -99 -149 -106 -144 -113 -138 -120 -132 -126 -126 -132 -120 -138 -113 -144 -106 -149 -99 -154 -92 -159 -84 -164 -76 -168 -68 -173 -60 -177 -51 -181 -42 -184 -33 -187 -24 -190 -15 -193 -5 -196 0 0 1 -1zm3803 -3803l0 183 0 0 -186 5 -184 14 -181 23 -178 32 -175 40 -172 49 -168 57 -164 65 -160 73 -156 80 -152 87 -147 94 -142 101 -137 107 -131 114 -126 120 -120 126 -114 131 -107 137 -101 142 -94 147 -87 152 -80 156 -73 160 -65 164 -57 168 -49 172 -40 175 -32 178 -23 181 -14 184 -5 186 -183 0 5 -196 15 -193 24 -190 33 -187 42 -184 51 -181 60 -177 68 -173 76 -168 84 -164 92 -159 99 -154 106 -149 113 -144 120 -138 126 -132 132 -126 138 -120 144 -113 149 -106 154 -99 159 -92 164 -84 169 -76 173 -68 177 -60 181 -51 184 -42 187 -33 190 -24 193 -15 196 -5 0 0 -1 0z"/>
  <path class="fil0" d="M1624 2882l507 0c69,0 124,49 124,110l0 978c0,61 -56,110 -124,110l-507 0c-69,0 -124,-49 -124,-110l0 -978c0,-61 56,-110 124,-110l0 0zm253 1030c-74,0 -132,-23 -177,-69 -44,-46 -66,-107 -66,-181l0 -359c0,-76 22,-136 66,-181 45,-46 103,-69 177,-69 74,0 133,23 177,69 44,46 67,107 67,181l0 359c0,75 -22,136 -67,181 -44,46 -103,69 -177,69z"/>
  <path class="fil0" d="M2802 2882l507 0c69,0 124,49 124,110l0 978c0,61 -56,110 -124,110l-507 0c-69,0 -124,-49 -124,-110l0 -978c0,-61 56,-110 124,-110l0 0zm254 1030c-74,0 -132,-23 -177,-69 -44,-46 -66,-107 -66,-181l0 -359c0,-76 22,-136 66,-181 45,-46 103,-69 177,-69 74,0 133,23 177,69 44,46 67,107 67,181l0 359c0,75 -22,136 -67,181 -44,46 -103,69 -177,69z"/>
  <path class="fil0" d="M3981 2882l507 0c69,0 124,49 124,110l0 978c0,61 -56,110 -124,110l-507 0c-69,0 -124,-49 -124,-110l0 -978c0,-61 56,-110 124,-110l0 0zm253 1030c-74,0 -132,-23 -177,-69 -44,-46 -66,-107 -66,-181l0 -359c0,-76 22,-136 66,-181 45,-46 103,-69 177,-69 74,0 133,23 177,69 44,46 67,107 67,181l0 359c0,75 -22,136 -67,181 -44,46 -103,69 -177,69z"/>
  <path class="fil0" d="M5159 2882l507 0c69,0 124,49 124,110l0 978c0,61 -56,110 -124,110l-507 0c-69,0 -124,-49 -124,-110l0 -978c0,-61 56,-110 124,-110zm254 1030c-74,0 -132,-23 -177,-69 -44,-46 -66,-107 -66,-181l0 -359c0,-76 22,-136 66,-181 45,-46 103,-69 177,-69 74,0 133,23 177,69 44,46 67,107 67,181l0 359c0,75 -22,136 -67,181 -44,46 -103,69 -177,69z"/>
  <path class="fil0" d="M6338 2882l507 0c69,0 124,49 124,110l0 978c0,61 -56,110 -124,110l-507 0c-69,0 -124,-49 -124,-110l0 -978c0,-61 56,-110 124,-110zm253 1030c-74,0 -132,-23 -177,-69 -44,-46 -66,-107 -66,-181l0 -359c0,-76 22,-136 66,-181 45,-46 103,-69 177,-69 74,0 133,23 177,69 44,46 67,107 67,181l0 359c0,75 -22,136 -67,181 -44,46 -103,69 -177,69z"/>
  <path class="fil0" d="M6591 3741c14,0 26,-7 34,-19 9,-13 12,-30 12,-50l0 -383c0,-21 -4,-37 -12,-51 -8,-12 -20,-19 -34,-19 -14,0 -25,7 -34,19 -8,13 -12,30 -12,51l0 383c0,21 4,37 12,50 9,13 20,19 34,19z"/>
  <path class="fil0" d="M5413 3741c14,0 26,-7 34,-19 9,-13 12,-30 12,-50l0 -383c0,-21 -4,-37 -12,-51 -8,-12 -20,-19 -34,-19 -14,0 -25,7 -34,19 -8,13 -12,30 -12,51l0 383c0,21 4,37 12,50 9,13 20,19 34,19z"/>
  <path class="fil0" d="M4234 3741c14,0 26,-7 34,-19 9,-13 12,-30 12,-50l0 -383c0,-21 -4,-37 -12,-51 -8,-12 -20,-19 -34,-19 -14,0 -25,7 -34,19 -8,13 -12,30 -12,51l0 383c0,21 4,37 12,50 9,13 20,19 34,19z"/>
  <path class="fil0" d="M3056 3741c14,0 26,-7 34,-19 9,-13 12,-30 12,-50l0 -383c0,-21 -4,-37 -12,-51 -8,-12 -20,-19 -34,-19 -14,0 -25,7 -34,19 -8,13 -12,30 -12,51l0 383c0,21 4,37 12,50 9,13 20,19 34,19z"/>
  <path class="fil0" d="M1877 3741c14,0 26,-7 34,-19 9,-13 12,-30 12,-50l0 -383c0,-21 -4,-37 -12,-51 -8,-12 -20,-19 -34,-19 -14,0 -25,7 -34,19 -8,13 -12,30 -12,51l0 383c0,21 4,37 12,50 9,13 20,19 34,19z"/>
 </g>
</svg>
