<?xml version="1.0" encoding="UTF-8"?>
<!DOCTYPE svg PUBLIC "-//W3C//DTD SVG 1.1//EN" "http://www.w3.org/Graphics/SVG/1.1/DTD/svg11.dtd">
<!-- Creator: CorelDRAW X6 -->
<svg xmlns="http://www.w3.org/2000/svg" xml:space="preserve" width="84.6666mm" height="84.6666mm" version="1.1" style="shape-rendering:geometricPrecision; text-rendering:geometricPrecision; image-rendering:optimizeQuality; fill-rule:evenodd; clip-rule:evenodd"
viewBox="0 0 8467 8467"
 xmlns:xlink="http://www.w3.org/1999/xlink">
 <defs>
  <style type="text/css">
   <![CDATA[
    .fil0 {fill:#006600}
   ]]>
  </style>
 </defs>
 <g id="Layer_x0020_1">
  <metadata id="CorelCorpID_0Corel-Layer"/>
  <path class="fil0" d="M6761 1136c-271,21 -481,247 -481,519 0,145 60,283 166,381 562,564 911,1337 911,2202 0,862 -349,1637 -911,2202 -98,97 -153,230 -153,369 0,288 234,522 522,522 138,0 271,-55 369,-153 749,-753 1215,-1797 1215,-2940 0,-1144 -466,-2188 -1215,-2940 -96,-102 -229,-160 -369,-163 -9,0 -18,-1 -27,-1 -9,0 -18,0 -27,1l0 0zm-5174 11c-115,15 -222,69 -304,152 -749,753 -1215,1797 -1215,2940 0,1144 466,2188 1215,2940 98,98 231,153 369,153 288,0 522,-234 522,-522 0,-138 -55,-271 -153,-369 -562,-564 -911,-1336 -911,-2202 0,-862 349,-1637 911,-2202 101,-98 158,-233 158,-374 0,-288 -233,-521 -521,-521 -24,0 -48,2 -71,5l0 0zm1323 1150c-114,12 -221,62 -304,141 -490,445 -803,1090 -803,1801 0,711 302,1357 792,1801 96,88 222,137 353,137 288,0 522,-234 522,-522 0,-146 -62,-286 -170,-385 -280,-253 -456,-617 -456,-1030 0,-411 174,-775 456,-1031 114,-99 179,-242 179,-393 0,-288 -233,-521 -521,-521 -16,0 -33,1 -49,2l0 0zm2571 0c-276,15 -492,244 -492,520 0,150 65,292 177,391 280,253 456,617 456,1031 0,411 -174,775 -456,1031 -132,98 -210,253 -210,417 0,288 233,521 521,521 146,0 285,-61 383,-168 490,-444 803,-1090 803,-1800 0,-711 -302,-1357 -792,-1801 -97,-91 -225,-142 -358,-142 -11,0 -22,0 -33,1l0 0zm-1247 1313c-348,0 -629,281 -629,629 0,347 281,629 629,629 348,0 629,-282 629,-629 0,-348 -281,-629 -629,-629z" enable-background="accumulate"/>
 </g>
</svg>
