<?xml version="1.0" encoding="UTF-8"?>
<!DOCTYPE svg PUBLIC "-//W3C//DTD SVG 1.1//EN" "http://www.w3.org/Graphics/SVG/1.1/DTD/svg11.dtd">
<!-- Creator: CorelDRAW X6 -->
<svg xmlns="http://www.w3.org/2000/svg" xml:space="preserve" width="84.6666mm" height="84.6666mm" version="1.1" style="shape-rendering:geometricPrecision; text-rendering:geometricPrecision; image-rendering:optimizeQuality; fill-rule:evenodd; clip-rule:evenodd"
viewBox="0 0 8467 8467"
 xmlns:xlink="http://www.w3.org/1999/xlink"
 xmlns:xodm="http://www.corel.com/coreldraw/odm/2003">
 <defs>
  <style type="text/css">
   <![CDATA[
    .str0 {stroke:red;stroke-width:600}
    .fil2 {fill:none}
    .fil0 {fill:red}
    .fil1 {fill:red;fill-rule:nonzero}
   ]]>
  </style>
 </defs>
 <g id="Layer_x0020_1">
  <metadata id="CorelCorpID_0Corel-Layer"/>
  <path class="fil0" d="M4392 1499c-164,59 -235,228 -330,402 -236,429 -551,941 -804,1382l-268 456c-127,197 -106,405 118,471 153,45 1786,17 2174,18 199,1 517,32 648,-73 180,-145 34,-366 -51,-512 -92,-158 -178,-313 -272,-466 -188,-308 -356,-620 -537,-926 -94,-159 -176,-302 -267,-457 -76,-130 -192,-375 -411,-296l0 1zm206 1465l231 0c34,0 61,22 61,50 0,10 -4,19 -10,28l-551 768c-11,15 -31,24 -52,24 -34,0 -61,-22 -61,-49 0,-3 0,-7 1,-10l81 -471 -274 4c0,0 -1,0 -1,0 -33,0 -60,-22 -60,-49 0,0 0,0 0,0 0,-9 3,-18 9,-26l543 -768c11,-15 31,-24 52,-24 34,0 61,22 61,50 0,2 0,4 -1,6l-28 468 0 0 -1 -1z"/>
  <g id="_686674368">
   <path class="fil1" d="M3232 5199l0 333 -11 0 -10 -1 -10 -1 -10 -1 -10 -2 -10 -2 -10 -3 -9 -3 -9 -3 -9 -4 -9 -4 -8 -4 -8 -5 -8 -5 -7 -5 -7 -6 -7 -6 -6 -6 -6 -6 -6 -7 -5 -7 -5 -7 -5 -7 -4 -7 -4 -8 -3 -8 -3 -8 -2 -8 -2 -8 -1 -8 -1 -8 0 -9 0 -9 1 -8 1 -8 2 -8 2 -8 3 -8 3 -8 4 -8 4 -7 5 -7 5 -7 5 -7 6 -7 6 -6 6 -6 7 -6 7 -6 7 -5 8 -5 8 -5 8 -4 9 -4 9 -4 9 -3 9 -3 10 -3 10 -2 10 -2 10 -1 10 -1 10 -1 11 0 0 1zm2501 333l-2501 0 0 -333 2501 0 0 333zm0 0l0 -333 11 0 10 1 10 1 10 1 10 2 10 2 10 3 9 3 9 3 9 4 9 4 8 4 8 5 8 5 7 5 7 6 7 6 6 6 6 6 6 7 5 7 5 7 5 7 4 7 4 8 3 8 3 8 2 8 2 8 1 8 1 8 0 9 0 9 -1 8 -1 8 -2 8 -2 8 -3 8 -3 8 -4 8 -4 7 -5 7 -5 7 -5 7 -6 7 -6 6 -6 6 -7 6 -7 6 -7 5 -8 5 -8 5 -8 4 -9 4 -9 4 -9 3 -9 3 -10 3 -10 2 -10 2 -10 1 -10 1 -10 1 -11 0 0 -1z"/>
  </g>
  <g id="_686664640">
   <path class="fil1" d="M3232 5880l0 333 -11 0 -10 -1 -10 -1 -10 -1 -10 -2 -10 -2 -10 -3 -9 -3 -9 -3 -9 -4 -9 -4 -8 -4 -8 -5 -8 -5 -7 -5 -7 -6 -7 -6 -6 -6 -6 -6 -6 -7 -5 -7 -5 -7 -5 -7 -4 -7 -4 -8 -3 -8 -3 -8 -2 -8 -2 -8 -1 -8 -1 -8 0 -9 0 -9 1 -8 1 -8 2 -8 2 -8 3 -8 3 -8 4 -8 4 -7 5 -7 5 -7 5 -7 6 -7 6 -6 6 -6 7 -6 7 -6 7 -5 8 -5 8 -5 8 -4 9 -4 9 -4 9 -3 9 -3 10 -3 10 -2 10 -2 10 -1 10 -1 10 -1 11 0 0 1zm2501 333l-2501 0 0 -333 2501 0 0 333zm0 0l0 -333 11 0 10 1 10 1 10 1 10 2 10 2 10 3 9 3 9 3 9 4 9 4 8 4 8 5 8 5 7 5 7 6 7 6 6 6 6 6 6 7 5 7 5 7 5 7 4 7 4 8 3 8 3 8 2 8 2 8 1 8 1 8 0 9 0 9 -1 8 -1 8 -2 8 -2 8 -3 8 -3 8 -4 8 -4 7 -5 7 -5 7 -5 7 -6 7 -6 6 -6 6 -7 6 -7 6 -7 5 -8 5 -8 5 -8 4 -9 4 -9 4 -9 3 -9 3 -10 3 -10 2 -10 2 -10 1 -10 1 -10 1 -11 0 0 -1z"/>
  </g>
  <g id="_686666016">
   <path class="fil1" d="M3232 6558l0 333 -11 0 -10 -1 -10 -1 -10 -1 -10 -2 -10 -2 -10 -3 -9 -3 -9 -3 -9 -4 -9 -4 -8 -4 -8 -5 -8 -5 -7 -5 -7 -6 -7 -6 -6 -6 -6 -6 -6 -7 -5 -7 -5 -7 -5 -7 -4 -7 -4 -8 -3 -8 -3 -8 -2 -8 -2 -8 -1 -8 -1 -8 0 -9 0 -9 1 -8 1 -8 2 -8 2 -8 3 -8 3 -8 4 -8 4 -7 5 -7 5 -7 5 -7 6 -7 6 -6 6 -6 7 -6 7 -6 7 -5 8 -5 8 -5 8 -4 9 -4 9 -4 9 -3 9 -3 10 -3 10 -2 10 -2 10 -1 10 -1 10 -1 11 0 0 1zm2501 333l-2501 0 0 -333 2501 0 0 333zm0 0l0 -333 11 0 10 1 10 1 10 1 10 2 10 2 10 3 9 3 9 3 9 4 9 4 8 4 8 5 8 5 7 5 7 6 7 6 6 6 6 6 6 7 5 7 5 7 5 7 4 7 4 8 3 8 3 8 2 8 2 8 1 8 1 8 0 9 0 9 -1 8 -1 8 -2 8 -2 8 -3 8 -3 8 -4 8 -4 7 -5 7 -5 7 -5 7 -6 7 -6 6 -6 6 -7 6 -7 6 -7 5 -8 5 -8 5 -8 4 -9 4 -9 4 -9 3 -9 3 -10 3 -10 2 -10 2 -10 1 -10 1 -10 1 -11 0 0 -1z"/>
  </g>
  <path class="fil2 str0" d="M1781 381l5379 0c393,0 714,321 714,714l0 2356 -420 0c-199,0 -362,163 -362,362l0 839c0,199 163,362 362,362l420 0 0 2356c0,393 -321,714 -714,714l-5379 0c-393,0 -714,-321 -714,-714l0 -6276c0,-393 321,-714 714,-714z"/>
  <rect class="fil0" x="285" y="1844" width="1564" height="1564" rx="362" ry="346"/>
  <rect class="fil0" x="285" y="5059" width="1564" height="1564" rx="362" ry="346"/>
 </g>
</svg>
