<?xml version="1.0" encoding="UTF-8"?>
<!DOCTYPE svg PUBLIC "-//W3C//DTD SVG 1.1//EN" "http://www.w3.org/Graphics/SVG/1.1/DTD/svg11.dtd">
<!-- Creator: CorelDRAW X6 -->
<svg xmlns="http://www.w3.org/2000/svg" xml:space="preserve" width="84.6666mm" height="84.6666mm" version="1.1" style="shape-rendering:geometricPrecision; text-rendering:geometricPrecision; image-rendering:optimizeQuality; fill-rule:evenodd; clip-rule:evenodd"
viewBox="0 0 8467 8467"
 xmlns:xlink="http://www.w3.org/1999/xlink">
 <defs>
  <style type="text/css">
   <![CDATA[
    .fil0 {fill:#ff6400}
   ]]>
  </style>
 </defs>
 <g id="Layer_x0020_1">
  <metadata id="CorelCorpID_0Corel-Layer"/>
  <g id="_754422096">
   <path id="Pictogrammers-Material-Pipe-valve.svg" class="fil0" d="M6316 599l-4165 0c-229,0 -417,187 -417,417 0,229 187,417 417,417l1250 0 0 417 417 0 0 625 833 0 0 -625 417 0 0 -417 1250 0c229,0 417,-187 417,-417 0,-229 -187,-417 -417,-417z"/>
   <path id="Pictogrammers-Material-Pipe-valve.svg_0" class="fil0" d="M8399 4119l0 3332 -833 0 0 -833 -1425 0c-321,733 -1054,1250 -1908,1250 -854,0 -1587,-516 -1908,-1250l-1425 0 0 833 -833 0 0 -3332 833 0 0 833 1429 0c208,-479 591,-862 1070,-1075l0 -591 -833 0 0 -833 3332 0 0 833 -833 0 0 591c479,212 862,596 1070,1075l1429 0 0 -833 833 0z"/>
  </g>
 </g>
</svg>
